<svg xmlns="http://www.w3.org/2000/svg" viewBox="0 0 64 64">
  <rect width="64" height="64" rx="14" fill="#0f766e"/>
  <path d="M17 45V17h10.5c5.9 0 10.6 1.2 14.1 3.7 3.6 2.5 5.4 6 5.4 10.5 0 4.3-1.8 7.7-5.4 10.2C38 43.8 33.3 45 27.5 45H17Z" fill="#ecfeff"/>
  <path d="M25 37V25h3.7c3 0 5.4.5 7.1 1.6 1.7 1.1 2.6 2.6 2.6 4.6 0 1.9-.9 3.4-2.6 4.4-1.7.9-4.1 1.4-7.1 1.4H25Z" fill="#0f766e"/>
  <path d="M42 15l5.1 2.4 2.4 5.1-2.4 5.1L42 30l-5.1-2.4-2.4-5.1 2.4-5.1L42 15Z" fill="#facc15"/>
  <path d="M42 19.8l2.2 1 1 2.2-1 2.2-2.2 1-2.2-1-1-2.2 1-2.2 2.2-1Z" fill="#134e4a"/>
</svg>
